# xmcd CD database file
#
# Track frame offsets:
#	150
#	18237
#	50495
#	68960
#	82260
#	104830
#	137045
#	154837
#	168445
#	186510
#	225802
#
# Disc length: 3240 seconds
#
# Revision: 2
# Processed by: cddbd v1.4PL0 Copyright (c) Steve Scherf et al.
# Submitted via: CDex 1.40Release
#
DISCID=950ca60b
DTITLE=Cast Iron Filter - Live from the Highway
DYEAR=2002
DGENRE=Country
TTITLE0=Ricky Dunbar
TTITLE1=Running Free
TTITLE2=Sgt Blue Kitty
TTITLE3=Hawkeye John
TTITLE4=SOKY Fair
TTITLE5=Wreckless
TTITLE6=27 Dollars and Wedding Ring
TTITLE7=Runaway Song
TTITLE8=Tamarack
TTITLE9=When You Don't Come Around
TTITLE10=Louisville KY
EXTD=YEAR: 2002 ID3G: 2
EXTT0=
EXTT1=
EXTT2=
EXTT3=
EXTT4=
EXTT5=
EXTT6=
EXTT7=
EXTT8=
EXTT9=
EXTT10=
PLAYORDER=
